# xmcd CD database file
#
# Track frame offsets:
#        150
#        19434
#        34493
#        57525
#        74436
#
# Disc length: 1244 seconds
#
# Revision: 0
# Processed by: cddbd v1.5.2PL0 Copyright (c) Steve Scherf et al.
# Submitted via: CUERipper 2.1.5
#
DISCID=4c04da05
DTITLE=LeRoy Bell - When That Fire Rolls Around
DYEAR=2016
DGENRE=Blues
TTITLE0=You Won't See Me
TTITLE1=Jaded
TTITLE2=Freedom
TTITLE3=If I were King
TTITLE4=If I Should Die Tonight
EXTD=
EXTT0=
EXTT1=
EXTT2=
EXTT3=
EXTT4=
PLAYORDER=
